#!OML:ASF H:\ManfredObstacles\Project 1\Capture day 2\Session 1\male.ASF
:FULLY-SPECIFIED
:DEGREES
249
root 2.37788 7.97257 8.38343 -114.514 -4.09115 -187.577
lowerback 40.426 -4.67078 6.18815
upperback 2.56216 -5.66104 -7.29635
thorax -18.4858 -3.5198 -8.64552
lowerneck -25.4811 2.26489 10.6527
upperneck 15.8171 -1.95975 3.82877
head 9.15432 0.0851967 -0.66149
rclavicle 3.598e-014 9.29815e-014
rhumerus -9.56779 14.0607 -91.8521
rradius 86.1075
rwrist 48.9548
rhand -47.7997 -4.23918
rfingers 7.12502
rthumb -20.4759 -33.1795
lclavicle 3.598e-014 9.29815e-014
lhumerus 42.8964 -3.39261 41.36
lradius 79.1815
lwrist -26.0308
lhand -28.3841 19.2083
lfingers 7.12502
lthumb -1.75684 49.1808
rfemur -88.1112 -10.1488 27.5929
rtibia 137.511
rfoot 12.7029 -5.59712
rtoes -32.0938
lfemur -74.797 4.90079 -20.4513
ltibia 127.149
lfoot 2.38905 11.6276
ltoes -5.07553
250
root 2.38901 8.01177 8.26766 -114.143 -3.90144 -187.508
lowerback 40.1823 -4.45157 6.06198
upperback 2.50296 -5.44339 -7.33402
thorax -18.424 -3.42197 -8.74849
lowerneck -25.6193 2.11142 10.4292
upperneck 15.7658 -2.10151 3.88317
head 9.15539 0.0152421 -0.628077
rclavicle -5.20816e-014 -8.1626e-015
rhumerus -10.0365 13.4844 -92.2615
rradius 85.7839
rwrist 48.9091
rhand -47.8614 -3.9166
rfingers 7.12502
rthumb -20.5352 -32.8505
lclavicle -5.20816e-014 -8.1626e-015
lhumerus 42.9138 -4.11294 41.5812
lradius 78.8116
lwrist -26.8707
lhand -28.8137 18.7755
lfingers 7.12502
lthumb -2.17176 48.7442
rfemur -87.4996 -10.0715 27.2925
rtibia 137.229
rfoot 13.1252 -5.58502
rtoes -31.5164
lfemur -74.1355 4.82302 -20.5195
ltibia 126.478
lfoot 2.44605 11.1934
ltoes -5.31001
251
root 2.39876 8.05071 8.14995 -113.811 -3.726 -187.496
lowerback 39.9414 -4.25243 5.94204
upperback 2.47236 -5.24639 -7.35728
thorax -18.3282 -3.33051 -8.82443
lowerneck -25.7445 1.95706 10.1706
upperneck 15.6945 -2.2336 3.96055
head 9.14851 -0.0511425 -0.579893
rclavicle 2.50469e-014 1.72632e-014
rhumerus -10.5065 12.8807 -92.5799
rradius 85.5968
rwrist 48.7073
rhand -47.9726 -3.54952
rfingers 7.12502
rthumb -20.6421 -32.4719
lclavicle 2.50469e-014 1.72632e-014
lhumerus 42.7484 -4.87764 41.8696
lradius 78.4859
lwrist -27.9279
lhand -29.3083 18.51
lfingers 7.12502
lthumb -2.64944 48.4733
rfemur -86.8396 -10.0965 26.9811
rtibia 136.936
rfoot 13.4468 -5.33631
rtoes -31.0244
lfemur -73.4081 4.64539 -20.5971
ltibia 125.825
lfoot 2.5621 10.7501
ltoes -5.50025
252
root 2.40779 8.08882 8.03145 -113.518 -3.57486 -187.533
lowerback 39.6087 -4.07342 5.8073
upperback 2.55867 -5.08472 -7.35659
thorax -18.179 -3.24756 -8.8236
lowerneck -25.9169 1.83109 9.90124
upperneck 15.6385 -2.32536 4.01405
head 9.15589 -0.100589 -0.532208
rclavicle 3.61788e-014 4.48694e-014
rhumerus -10.9402 12.3186 -92.7802
rradius 85.5604
rwrist 48.3084
rhand -48.1236 -3.14076
rfingers 7.12502
rthumb -20.7872 -32.0473
lclavicle 3.61788e-014 4.48694e-014
lhumerus 42.4151 -5.58146 42.2216
lradius 78.1655
lwrist -29.0375
lhand -29.8077 18.4565
lfingers 7.12502
lthumb -3.13171 48.4133
rfemur -86.1332 -10.1872 26.6738
rtibia 136.64
rfoot 13.5879 -4.88269
rtoes -30.7333
lfemur -72.6357 4.39778 -20.6689
ltibia 125.202
lfoot 2.73086 10.3221
ltoes -5.60972
253
root 2.41607 8.12632 7.91256 -113.27 -3.45674 -187.617
lowerback 39.3557 -3.94068 5.67311
upperback 2.60233 -4.9734 -7.33367
thorax -17.9932 -3.18386 -8.78683
lowerneck -26.1159 1.73791 9.63435
upperneck 15.5821 -2.38212 4.07953
head 9.16914 -0.132737 -0.475496
rclavicle -1.15295e-014 4.36457e-014
rhumerus -11.3513 11.7918 -92.8809
rradius 85.6841
rwrist 47.7351
rhand -48.3258 -2.80225
rfingers 7.12502
rthumb -20.9814 -31.6874
lclavicle -1.15295e-014 4.36457e-014
lhumerus 41.9768 -6.20913 42.5492
lradius 77.8307
lwrist -30.0103
lhand -30.2677 18.5673
lfingers 7.12502
lthumb -3.57595 48.5171
rfemur -85.3651 -10.3485 26.3927
rtibia 136.343
rfoot 13.537 -4.3271
rtoes -30.6855
lfemur -71.8225 4.08769 -20.7241
ltibia 124.614
lfoot 2.94218 9.93017
ltoes -5.68886
254
root 2.42378 8.16314 7.79439 -113.056 -3.3745 -187.743
lowerback 39.1022 -3.84704 5.56676
upperback 2.67338 -4.90321 -7.31674
thorax -17.7844 -3.13915 -8.74922
lowerneck -26.3677 1.67064 9.38344
upperneck 15.5599 -2.4307 4.18143
head 9.20483 -0.154509 -0.407264
rclavicle -1.03368e-014 -3.21193e-014
rhumerus -11.7379 11.2607 -92.8833
rradius 85.9554
rwrist 46.9865
rhand -48.586 -2.48821
rfingers 7.12502
rthumb -21.2314 -31.3454
lclavicle -1.03368e-014 -3.21193e-014
lhumerus 41.5137 -6.78664 42.7858
lradius 77.4772
lwrist -30.6805
lhand -30.6814 18.735
lfingers 7.12502
lthumb -3.97543 48.6777
rfemur -84.5648 -10.562 26.1569
rtibia 136.057
rfoot 13.3008 -3.80321
rtoes -30.8367
lfemur -70.9995 3.73771 -20.76
ltibia 124.072
lfoot 3.17355 9.58385
ltoes -5.71592
255
root 2.43135 8.19916 7.67803 -112.87 -3.31856 -187.889
lowerback 38.8471 -3.78617 5.4902
upperback 2.75127 -4.86717 -7.31922
thorax -17.5789 -3.11263 -8.73244
lowerneck -26.591 1.63318 9.17695
upperneck 15.5621 -2.46258 4.30899
head 9.24579 -0.163251 -0.334621
rclavicle 7.55382e-015 5.27649e-014
rhumerus -12.1167 10.711 -92.8012
rradius 86.3682
rwrist 46.1233
rhand -48.8616 -2.23719
rfingers 7.12502
rthumb -21.4961 -31.0644
lclavicle 7.55382e-015 5.27649e-014
lhumerus 41.0551 -7.36069 42.8348
lradius 77.1007
lwrist -30.9936
lhand -31.0734 18.9052
lfingers 7.12502
lthumb -4.35402 48.8405
rfemur -83.7531 -10.7887 25.9808
rtibia 135.791
rfoot 12.9835 -3.42437
rtoes -31.0604
lfemur -70.1924 3.38686 -20.7725
ltibia 123.586
lfoot 3.40967 9.29087
ltoes -5.69603
256
root 2.43894 8.23452 7.56397 -112.694 -3.278 -188.036
lowerback 38.6086 -3.7259 5.5113
upperback 2.80083 -4.80438 -7.40252
thorax -17.4305 -3.08897 -8.87826
lowerneck -26.7328 1.56947 9.10065
upperneck 15.5782 -2.57773 4.46436
head 9.27725 -0.200945 -0.285478
rclavicle 6.04305e-014 6.21109e-014
rhumerus -12.5495 9.91167 -92.677
rradius 86.9134
rwrist 45.2095
rhand -49.1664 -1.98158
rfingers 7.12502
rthumb -21.7888 -30.7751
lclavicle 6.04305e-014 6.21109e-014
lhumerus 40.7434 -8.14597 42.5932
lradius 76.6872
lwrist -30.9449
lhand -31.5009 19.0717
lfingers 7.12502
lthumb -4.7668 48.998
rfemur -82.9591 -10.9994 25.8703
rtibia 135.546
rfoot 12.6659 -3.28086
rtoes -31.1499
lfemur -69.4353 3.07455 -20.7646
ltibia 123.164
lfoot 3.63051 9.0485
ltoes -5.69845
257
root 2.44654 8.26937 7.4519 -112.56 -3.24724 -188.171
lowerback 38.4252 -3.67691 5.59311
upperback 2.81011 -4.73897 -7.54078
thorax -17.3657 -3.07474 -9.12322
lowerneck -26.7274 1.49622 9.07705
upperneck 15.6073 -2.72503 4.67972
head 9.29051 -0.246082 -0.229175
rclavicle -1.19271e-014 4.62454e-014
rhumerus -13.0035 8.9548 -92.4883
rradius 87.569
rwrist 44.2841
rhand -49.4492 -1.72198
rfingers 7.12502
rthumb -22.0604 -30.4837
lclavicle -1.19271e-014 4.62454e-014
lhumerus 40.5056 -9.10095 42.0658
lradius 76.2467
lwrist -30.6919
lhand -31.9539 19.271
lfingers 7.12502
lthumb -5.20417 49.1871
rfemur -82.1384 -11.1844 25.8203
rtibia 135.31
rfoot 12.3882 -3.39213
rtoes -31.052
lfemur -68.6792 2.83292 -20.7292
ltibia 122.8
lfoot 3.8083 8.85294
ltoes -5.64808
258
root 2.45378 8.30346 7.34232 -112.439 -3.22316 -188.288
lowerback 38.2638 -3.62936 5.71829
upperback 2.77081 -4.66115 -7.71524
thorax -17.3756 -3.06352 -9.443
lowerneck -26.5497 1.41227 9.08889
upperneck 15.6312 -2.88922 4.93609
head 9.2748 -0.296081 -0.167398
rclavicle -1.66979e-014 2.47052e-014
rhumerus -13.4276 7.83884 -92.2059
rradius 88.2918
rwrist 43.3828
rhand -49.6807 -1.48828
rfingers 7.12502
rthumb -22.2826 -30.2236
lclavicle -1.66979e-014 2.47052e-014
lhumerus 40.3412 -10.2242 41.2946
lradius 75.7796
lwrist -30.3009
lhand -32.4546 19.5557
lfingers 7.12502
lthumb -5.68767 49.4594
rfemur -81.3323 -11.333 25.8227
rtibia 135.087
rfoot 12.1736 -3.68704
rtoes -30.8053
lfemur -67.965 2.66292 -20.67
ltibia 122.498
lfoot 3.94791 8.70315
ltoes -5.60885
259
root 2.46032 8.33696 7.23413 -112.356 -3.21301 -188.388
lowerback 38.1423 -3.58352 5.86879
upperback 2.69875 -4.57477 -7.90137
thorax -17.4427 -3.05397 -9.79677
lowerneck -26.2836 1.31958 9.12125
upperneck 15.6786 -3.06739 5.20616
head 9.25343 -0.350522 -0.106496
rclavicle -2.3059e-014 -7.03201e-014
rhumerus -13.7421 6.59266 -91.7948
rradius 89.0333
rwrist 42.5854
rhand -49.865 -1.50053
rfingers 7.12502
rthumb -22.4595 -30.2146
lclavicle -2.3059e-014 -7.03201e-014
lhumerus 40.2335 -11.4451 40.3671
lradius 75.2745
lwrist -29.9941
lhand -32.9727 20.0151
lfingers 7.12502
lthumb -6.18786 49.9048
rfemur -80.4836 -11.4413 25.8712
rtibia 134.855
rfoot 12.0439 -4.14705
rtoes -30.3967
lfemur -67.2618 2.57007 -20.5763
ltibia 122.255
lfoot 4.02652 8.60265
ltoes -5.57357
260
root 2.46573 8.36963 7.12772 -112.297 -3.2176 -188.475
lowerback 38.0302 -3.53209 5.98273
upperback 2.61263 -4.48635 -8.04547
thorax -17.5201 -3.03906 -10.0834
lowerneck -26.0386 1.24063 9.14572
upperneck 15.7778 -3.22111 5.43623
head 9.25349 -0.395225 -0.0544248
rclavicle -2.38542e-015 4.05769e-014
rhumerus -13.8298 5.30785 -91.1962
rradius 89.7407
rwrist 41.7808
rhand -49.9817 -1.77269
rfingers 7.12502
rthumb -22.5715 -30.4732
lclavicle -2.38542e-015 4.05769e-014
lhumerus 40.1268 -12.6558 39.4348
lradius 74.7274
lwrist -29.7881
lhand -33.5307 20.639
lfingers 7.12502
lthumb -6.7265 50.5121
rfemur -79.6072 -11.5242 25.9467
rtibia 134.609
rfoot 11.9652 -4.67421
rtoes -29.9188
lfemur -66.6025 2.55471 -20.4541
ltibia 122.084
lfoot 4.04511 8.56029
ltoes -5.60029
261
root 2.46957 8.401 7.02373 -112.235 -3.24447 -188.558
lowerback 37.886 -3.48681 6.06429
upperback 2.52497 -4.40826 -8.1385
thorax -17.5778 -3.02223 -10.2878
lowerneck -25.8807 1.18755 9.20082
upperneck 15.9122 -3.33668 5.55442
head 9.27731 -0.428498 -0.0398028
rclavicle 2.94201e-014 3.28243e-014
rhumerus -13.6297 4.00614 -90.4197
rradius 90.3624
rwrist 40.9326
rhand -49.9804 -2.43068
rfingers 7.12502
rthumb -22.5703 -31.1313
lclavicle 2.94201e-014 3.28243e-014
lhumerus 39.9952 -13.7971 38.592
lradius 74.1422
lwrist -29.6484
lhand -34.1091 21.3403
lfingers 7.12502
lthumb -7.28487 51.1949
rfemur -78.7298 -11.6043 26.0409
rtibia 134.346
rfoot 11.9273 -5.18042
rtoes -29.4402
lfemur -66.0407 2.60014 -20.3057
ltibia 121.997
lfoot 4.02056 8.55359
ltoes -5.66614
262
root 2.47202 8.43102 6.92214 -112.155 -3.28118 -188.646
lowerback 37.6916 -3.44777 6.09099
upperback 2.4414 -4.35125 -8.17982
thorax -17.6024 -3.0055 -10.39
lowerneck -25.8021 1.15791 9.21799
upperneck 16.061 -3.40998 5.63897
head 9.31927 -0.445575 -0.0243148
rclavicle 4.45278e-014 5.73991e-014
rhumerus -13.1051 2.68495 -89.4981
rradius 90.855
rwrist 39.9968
rhand -49.8467 -3.4176
rfingers 7.12502
rthumb -22.442 -32.1338
lclavicle 4.45278e-014 5.73991e-014
lhumerus 39.8062 -14.8322 37.9089
lradius 73.5237
lwrist -29.5147
lhand -34.7118 21.9915
lfingers 7.12502
lthumb -7.86665 51.8251
rfemur -77.8786 -11.6905 26.1288
rtibia 134.066
rfoot 11.898 -5.62995
rtoes -28.9949
lfemur -65.6075 2.69925 -20.1485
ltibia 122
lfoot 3.95316 8.58701
ltoes -5.75412
